<?xml version="1.0" encoding="UTF-8" standalone="no"?>
<svg xmlns="http://www.w3.org/2000/svg"
     xmlns:svg="http://www.w3.org/2000/svg"
     width="500" height="512"
     viewBox="0 0 500 512">
  <path fill="#393A48" d="
M 96.0,188.00
           C 96.91,183.50 97.96,178.82 100.65,175.00
             106.96,166.01 115.69,164.02 126.0,164.00
             126.0,164.00 170.53,164.13 173.0,163.30
             173.0,163.30 287.0,88.00 287.0,88.00
             298.51,80.33 315.77,66.11 330.0,67.18
             349.29,68.64 359.97,82.35 360.0,101.00
             360.0,101.00 360.0,411.00 360.0,411.00
             359.99,417.15 359.51,422.41 356.6,428.00
             347.86,444.78 326.77,448.80 311.0,439.77
             311.0,439.77 187.0,357.33 187.0,357.33
             178.07,351.38 175.99,348.02 165.0,348.00
             165.0,348.00 132.0,348.00 132.0,348.00
             119.62,348.00 108.69,348.46 100.65,337.00
             97.96,333.18 96.91,328.50 96.0,324.08
             90.85,325.45 90.02,324.70 85.0,324.08
             68.83,322.43 56.48,314.72 48.9,300.00
             45.51,293.42 44.09,282.40 44.0,275.00
             44.0,275.00 44.0,249.00 44.0,249.00
             44.0,227.84 43.84,207.87 64.0,194.94
             67.82,192.49 71.68,190.70 76.0,189.35
             81.27,187.70 90.73,186.52 96.0,188.00 Z
           M 327.0,92.52
           C 320.88,95.53 192.16,181.79 189.99,183.27
             189.97,185.68 189.92,326.12 189.99,328.63
             192.75,330.87 322.73,418.02 325.0,418.90
             333.46,422.19 335.04,414.69 335.0,408.00
             335.0,408.00 335.0,104.00 335.0,104.00
             334.99,97.62 334.81,92.78 327.0,92.52 Z
           M 96.0,212.00
           C 87.15,212.01 79.39,212.52 73.39,220.02
             67.26,227.69 69.13,244.86 69.13,254.35
             68.38,287.47 67.93,289.57 82.0,298.39
             86.49,299.99 91.3,300.00 96.0,300.00
             96.0,300.00 96.0,212.00 96.0,212.00 Z" />
</svg>
